# xmcd
#
# Track frame offsets:
#	150
#	25602
#	44910
#	62777
#	84900
#	102517
#	121329
#	141565
#	160737
#	182007
#
# Disc length: 2650 seconds
#
# Revision: 2
# Processed by: cddbd v1.4PL0 Copyright (c) Steve Scherf et al.
# Submitted via: CDmax 1.9
#
DISCID=880a580a
DTITLE=Bruce Carroll - Speed of Light
DYEAR=1996
DGENRE=Country
TTITLE0=Here I Go Again
TTITLE1=Speed of Light
TTITLE2=Don't Blame Love
TTITLE3=Worth it All
TTITLE4=I Want to Trust You
TTITLE5=You Can Get There from Here
TTITLE6=Rise Above it All
TTITLE7=More to Come
TTITLE8=It's Just Like Church to Me
TTITLE9=God Doesn't Know
EXTD=
EXTT0=
EXTT1=
EXTT2=
EXTT3=
EXTT4=
EXTT5=
EXTT6=
EXTT7=
EXTT8=
EXTT9=
PLAYORDER=
